<?xml version="1.0" standalone="no"?>
<svg xmlns="http://www.w3.org/2000/svg" viewBox="0 0 1000 1000"><rect x="0" y="0" width="1000" height="1000" fill="#ffffff"/><g fill="#000000"><rect x="108" y="351" width="27" height="27" shape-rendering="crispEdges"/><rect x="108" y="405" width="27" height="27" shape-rendering="crispEdges"/><rect x="108" y="432" width="27" height="27" shape-rendering="crispEdges"/><rect x="108" y="486" width="27" height="27" shape-rendering="crispEdges"/><rect x="108" y="567" width="27" height="27" shape-rendering="crispEdges"/><rect x="108" y="594" width="27" height="27" shape-rendering="crispEdges"/><rect x="108" y="621" width="27" height="27" shape-rendering="crispEdges"/><rect x="135" y="324" width="27" height="27" shape-rendering="crispEdges"/><rect x="135" y="351" width="27" height="27" shape-rendering="crispEdges"/><rect x="135" y="459" width="27" height="27" shape-rendering="crispEdges"/><rect x="135" y="486" width="27" height="27" shape-rendering="crispEdges"/><rect x="135" y="513" width="27" height="27" shape-rendering="crispEdges"/><rect x="135" y="540" width="27" height="27" shape-rendering="crispEdges"/><rect x="135" y="648" width="27" height="27" shape-rendering="crispEdges"/><rect x="162" y="378" width="27" height="27" shape-rendering="crispEdges"/><rect x="162" y="459" width="27" height="27" shape-rendering="crispEdges"/><rect x="162" y="486" width="27" height="27" shape-rendering="crispEdges"/><rect x="162" y="513" width="27" height="27" shape-rendering="crispEdges"/><rect x="162" y="540" width="27" height="27" shape-rendering="crispEdges"/><rect x="162" y="594" width="27" height="27" shape-rendering="crispEdges"/><rect x="162" y="648" width="27" height="27" shape-rendering="crispEdges"/><rect x="189" y="324" width="27" height="27" shape-rendering="crispEdges"/><rect x="189" y="351" width="27" height="27" shape-rendering="crispEdges"/><rect x="189" y="378" width="27" height="27" shape-rendering="crispEdges"/><rect x="189" y="405" width="27" height="27" shape-rendering="crispEdges"/><rect x="189" y="432" width="27" height="27" shape-rendering="crispEdges"/><rect x="189" y="459" width="27" height="27" shape-rendering="crispEdges"/><rect x="189" y="486" width="27" height="27" shape-rendering="crispEdges"/><rect x="189" y="540" width="27" height="27" shape-rendering="crispEdges"/><rect x="189" y="567" width="27" height="27" shape-rendering="crispEdges"/><rect x="189" y="594" width="27" height="27" shape-rendering="crispEdges"/><rect x="189" y="621" width="27" height="27" shape-rendering="crispEdges"/><rect x="216" y="324" width="27" height="27" shape-rendering="crispEdges"/><rect x="216" y="405" width="27" height="27" shape-rendering="crispEdges"/><rect x="216" y="486" width="27" height="27" shape-rendering="crispEdges"/><rect x="216" y="540" width="27" height="27" shape-rendering="crispEdges"/><rect x="216" y="567" width="27" height="27" shape-rendering="crispEdges"/><rect x="216" y="594" width="27" height="27" shape-rendering="crispEdges"/><rect x="216" y="621" width="27" height="27" shape-rendering="crispEdges"/><rect x="243" y="351" width="27" height="27" shape-rendering="crispEdges"/><rect x="243" y="405" width="27" height="27" shape-rendering="crispEdges"/><rect x="243" y="567" width="27" height="27" shape-rendering="crispEdges"/><rect x="243" y="594" width="27" height="27" shape-rendering="crispEdges"/><rect x="243" y="648" width="27" height="27" shape-rendering="crispEdges"/><rect x="270" y="324" width="27" height="27" shape-rendering="crispEdges"/><rect x="270" y="378" width="27" height="27" shape-rendering="crispEdges"/><rect x="270" y="432" width="27" height="27" shape-rendering="crispEdges"/><rect x="270" y="486" width="27" height="27" shape-rendering="crispEdges"/><rect x="270" y="540" width="27" height="27" shape-rendering="crispEdges"/><rect x="270" y="594" width="27" height="27" shape-rendering="crispEdges"/><rect x="270" y="648" width="27" height="27" shape-rendering="crispEdges"/><rect x="297" y="324" width="27" height="27" shape-rendering="crispEdges"/><rect x="297" y="351" width="27" height="27" shape-rendering="crispEdges"/><rect x="297" y="378" width="27" height="27" shape-rendering="crispEdges"/><rect x="297" y="405" width="27" height="27" shape-rendering="crispEdges"/><rect x="297" y="486" width="27" height="27" shape-rendering="crispEdges"/><rect x="297" y="513" width="27" height="27" shape-rendering="crispEdges"/><rect x="297" y="621" width="27" height="27" shape-rendering="crispEdges"/><rect x="297" y="648" width="27" height="27" shape-rendering="crispEdges"/><rect x="324" y="135" width="27" height="27" shape-rendering="crispEdges"/><rect x="324" y="189" width="27" height="27" shape-rendering="crispEdges"/><rect x="324" y="216" width="27" height="27" shape-rendering="crispEdges"/><rect x="324" y="243" width="27" height="27" shape-rendering="crispEdges"/><rect x="324" y="270" width="27" height="27" shape-rendering="crispEdges"/><rect x="324" y="324" width="27" height="27" shape-rendering="crispEdges"/><rect x="324" y="432" width="27" height="27" shape-rendering="crispEdges"/><rect x="324" y="459" width="27" height="27" shape-rendering="crispEdges"/><rect x="324" y="513" width="27" height="27" shape-rendering="crispEdges"/><rect x="324" y="540" width="27" height="27" shape-rendering="crispEdges"/><rect x="324" y="594" width="27" height="27" shape-rendering="crispEdges"/><rect x="324" y="648" width="27" height="27" shape-rendering="crispEdges"/><rect x="324" y="675" width="27" height="27" shape-rendering="crispEdges"/><rect x="324" y="702" width="27" height="27" shape-rendering="crispEdges"/><rect x="324" y="756" width="27" height="27" shape-rendering="crispEdges"/><rect x="324" y="783" width="27" height="27" shape-rendering="crispEdges"/><rect x="324" y="837" width="27" height="27" shape-rendering="crispEdges"/><rect x="351" y="135" width="27" height="27" shape-rendering="crispEdges"/><rect x="351" y="243" width="27" height="27" shape-rendering="crispEdges"/><rect x="351" y="297" width="27" height="27" shape-rendering="crispEdges"/><rect x="351" y="351" width="27" height="27" shape-rendering="crispEdges"/><rect x="351" y="378" width="27" height="27" shape-rendering="crispEdges"/><rect x="351" y="432" width="27" height="27" shape-rendering="crispEdges"/><rect x="351" y="486" width="27" height="27" shape-rendering="crispEdges"/><rect x="351" y="513" width="27" height="27" shape-rendering="crispEdges"/><rect x="351" y="567" width="27" height="27" shape-rendering="crispEdges"/><rect x="351" y="648" width="27" height="27" shape-rendering="crispEdges"/><rect x="351" y="702" width="27" height="27" shape-rendering="crispEdges"/><rect x="351" y="756" width="27" height="27" shape-rendering="crispEdges"/><rect x="351" y="810" width="27" height="27" shape-rendering="crispEdges"/><rect x="351" y="837" width="27" height="27" shape-rendering="crispEdges"/><rect x="378" y="135" width="27" height="27" shape-rendering="crispEdges"/><rect x="378" y="162" width="27" height="27" shape-rendering="crispEdges"/><rect x="378" y="189" width="27" height="27" shape-rendering="crispEdges"/><rect x="378" y="216" width="27" height="27" shape-rendering="crispEdges"/><rect x="378" y="270" width="27" height="27" shape-rendering="crispEdges"/><rect x="378" y="297" width="27" height="27" shape-rendering="crispEdges"/><rect x="378" y="324" width="27" height="27" shape-rendering="crispEdges"/><rect x="378" y="405" width="27" height="27" shape-rendering="crispEdges"/><rect x="378" y="432" width="27" height="27" shape-rendering="crispEdges"/><rect x="378" y="459" width="27" height="27" shape-rendering="crispEdges"/><rect x="378" y="486" width="27" height="27" shape-rendering="crispEdges"/><rect x="378" y="540" width="27" height="27" shape-rendering="crispEdges"/><rect x="378" y="675" width="27" height="27" shape-rendering="crispEdges"/><rect x="378" y="702" width="27" height="27" shape-rendering="crispEdges"/><rect x="378" y="729" width="27" height="27" shape-rendering="crispEdges"/><rect x="378" y="756" width="27" height="27" shape-rendering="crispEdges"/><rect x="405" y="189" width="27" height="27" shape-rendering="crispEdges"/><rect x="405" y="243" width="27" height="27" shape-rendering="crispEdges"/><rect x="405" y="297" width="27" height="27" shape-rendering="crispEdges"/><rect x="405" y="351" width="27" height="27" shape-rendering="crispEdges"/><rect x="405" y="432" width="27" height="27" shape-rendering="crispEdges"/><rect x="405" y="459" width="27" height="27" shape-rendering="crispEdges"/><rect x="405" y="486" width="27" height="27" shape-rendering="crispEdges"/><rect x="405" y="540" width="27" height="27" shape-rendering="crispEdges"/><rect x="405" y="567" width="27" height="27" shape-rendering="crispEdges"/><rect x="405" y="594" width="27" height="27" shape-rendering="crispEdges"/><rect x="405" y="729" width="27" height="27" shape-rendering="crispEdges"/><rect x="405" y="783" width="27" height="27" shape-rendering="crispEdges"/><rect x="405" y="864" width="27" height="27" shape-rendering="crispEdges"/><rect x="432" y="108" width="27" height="27" shape-rendering="crispEdges"/><rect x="432" y="189" width="27" height="27" shape-rendering="crispEdges"/><rect x="432" y="216" width="27" height="27" shape-rendering="crispEdges"/><rect x="432" y="270" width="27" height="27" shape-rendering="crispEdges"/><rect x="432" y="324" width="27" height="27" shape-rendering="crispEdges"/><rect x="432" y="351" width="27" height="27" shape-rendering="crispEdges"/><rect x="432" y="378" width="27" height="27" shape-rendering="crispEdges"/><rect x="432" y="405" width="27" height="27" shape-rendering="crispEdges"/><rect x="432" y="459" width="27" height="27" shape-rendering="crispEdges"/><rect x="432" y="486" width="27" height="27" shape-rendering="crispEdges"/><rect x="432" y="621" width="27" height="27" shape-rendering="crispEdges"/><rect x="432" y="648" width="27" height="27" shape-rendering="crispEdges"/><rect x="432" y="675" width="27" height="27" shape-rendering="crispEdges"/><rect x="432" y="702" width="27" height="27" shape-rendering="crispEdges"/><rect x="432" y="810" width="27" height="27" shape-rendering="crispEdges"/><rect x="432" y="837" width="27" height="27" shape-rendering="crispEdges"/><rect x="459" y="162" width="27" height="27" shape-rendering="crispEdges"/><rect x="459" y="189" width="27" height="27" shape-rendering="crispEdges"/><rect x="459" y="216" width="27" height="27" shape-rendering="crispEdges"/><rect x="459" y="297" width="27" height="27" shape-rendering="crispEdges"/><rect x="459" y="432" width="27" height="27" shape-rendering="crispEdges"/><rect x="459" y="513" width="27" height="27" shape-rendering="crispEdges"/><rect x="459" y="540" width="27" height="27" shape-rendering="crispEdges"/><rect x="459" y="567" width="27" height="27" shape-rendering="crispEdges"/><rect x="459" y="594" width="27" height="27" shape-rendering="crispEdges"/><rect x="459" y="702" width="27" height="27" shape-rendering="crispEdges"/><rect x="459" y="756" width="27" height="27" shape-rendering="crispEdges"/><rect x="459" y="810" width="27" height="27" shape-rendering="crispEdges"/><rect x="486" y="108" width="27" height="27" shape-rendering="crispEdges"/><rect x="486" y="135" width="27" height="27" shape-rendering="crispEdges"/><rect x="486" y="162" width="27" height="27" shape-rendering="crispEdges"/><rect x="486" y="189" width="27" height="27" shape-rendering="crispEdges"/><rect x="486" y="216" width="27" height="27" shape-rendering="crispEdges"/><rect x="486" y="270" width="27" height="27" shape-rendering="crispEdges"/><rect x="486" y="351" width="27" height="27" shape-rendering="crispEdges"/><rect x="486" y="378" width="27" height="27" shape-rendering="crispEdges"/><rect x="486" y="405" width="27" height="27" shape-rendering="crispEdges"/><rect x="486" y="513" width="27" height="27" shape-rendering="crispEdges"/><rect x="486" y="567" width="27" height="27" shape-rendering="crispEdges"/><rect x="486" y="621" width="27" height="27" shape-rendering="crispEdges"/><rect x="486" y="729" width="27" height="27" shape-rendering="crispEdges"/><rect x="486" y="783" width="27" height="27" shape-rendering="crispEdges"/><rect x="486" y="864" width="27" height="27" shape-rendering="crispEdges"/><rect x="513" y="162" width="27" height="27" shape-rendering="crispEdges"/><rect x="513" y="189" width="27" height="27" shape-rendering="crispEdges"/><rect x="513" y="216" width="27" height="27" shape-rendering="crispEdges"/><rect x="513" y="243" width="27" height="27" shape-rendering="crispEdges"/><rect x="513" y="324" width="27" height="27" shape-rendering="crispEdges"/><rect x="513" y="405" width="27" height="27" shape-rendering="crispEdges"/><rect x="513" y="513" width="27" height="27" shape-rendering="crispEdges"/><rect x="513" y="567" width="27" height="27" shape-rendering="crispEdges"/><rect x="513" y="594" width="27" height="27" shape-rendering="crispEdges"/><rect x="513" y="621" width="27" height="27" shape-rendering="crispEdges"/><rect x="513" y="648" width="27" height="27" shape-rendering="crispEdges"/><rect x="513" y="756" width="27" height="27" shape-rendering="crispEdges"/><rect x="513" y="783" width="27" height="27" shape-rendering="crispEdges"/><rect x="513" y="810" width="27" height="27" shape-rendering="crispEdges"/><rect x="513" y="864" width="27" height="27" shape-rendering="crispEdges"/><rect x="540" y="108" width="27" height="27" shape-rendering="crispEdges"/><rect x="540" y="135" width="27" height="27" shape-rendering="crispEdges"/><rect x="540" y="162" width="27" height="27" shape-rendering="crispEdges"/><rect x="540" y="216" width="27" height="27" shape-rendering="crispEdges"/><rect x="540" y="243" width="27" height="27" shape-rendering="crispEdges"/><rect x="540" y="270" width="27" height="27" shape-rendering="crispEdges"/><rect x="540" y="351" width="27" height="27" shape-rendering="crispEdges"/><rect x="540" y="378" width="27" height="27" shape-rendering="crispEdges"/><rect x="540" y="459" width="27" height="27" shape-rendering="crispEdges"/><rect x="540" y="486" width="27" height="27" shape-rendering="crispEdges"/><rect x="540" y="513" width="27" height="27" shape-rendering="crispEdges"/><rect x="540" y="540" width="27" height="27" shape-rendering="crispEdges"/><rect x="540" y="567" width="27" height="27" shape-rendering="crispEdges"/><rect x="540" y="648" width="27" height="27" shape-rendering="crispEdges"/><rect x="540" y="702" width="27" height="27" shape-rendering="crispEdges"/><rect x="540" y="783" width="27" height="27" shape-rendering="crispEdges"/><rect x="567" y="108" width="27" height="27" shape-rendering="crispEdges"/><rect x="567" y="189" width="27" height="27" shape-rendering="crispEdges"/><rect x="567" y="216" width="27" height="27" shape-rendering="crispEdges"/><rect x="567" y="297" width="27" height="27" shape-rendering="crispEdges"/><rect x="567" y="378" width="27" height="27" shape-rendering="crispEdges"/><rect x="567" y="405" width="27" height="27" shape-rendering="crispEdges"/><rect x="567" y="432" width="27" height="27" shape-rendering="crispEdges"/><rect x="567" y="540" width="27" height="27" shape-rendering="crispEdges"/><rect x="567" y="594" width="27" height="27" shape-rendering="crispEdges"/><rect x="567" y="648" width="27" height="27" shape-rendering="crispEdges"/><rect x="567" y="702" width="27" height="27" shape-rendering="crispEdges"/><rect x="567" y="729" width="27" height="27" shape-rendering="crispEdges"/><rect x="567" y="756" width="27" height="27" shape-rendering="crispEdges"/><rect x="594" y="108" width="27" height="27" shape-rendering="crispEdges"/><rect x="594" y="135" width="27" height="27" shape-rendering="crispEdges"/><rect x="594" y="216" width="27" height="27" shape-rendering="crispEdges"/><rect x="594" y="270" width="27" height="27" shape-rendering="crispEdges"/><rect x="594" y="297" width="27" height="27" shape-rendering="crispEdges"/><rect x="594" y="378" width="27" height="27" shape-rendering="crispEdges"/><rect x="594" y="459" width="27" height="27" shape-rendering="crispEdges"/><rect x="594" y="486" width="27" height="27" shape-rendering="crispEdges"/><rect x="594" y="513" width="27" height="27" shape-rendering="crispEdges"/><rect x="594" y="567" width="27" height="27" shape-rendering="crispEdges"/><rect x="594" y="648" width="27" height="27" shape-rendering="crispEdges"/><rect x="594" y="810" width="27" height="27" shape-rendering="crispEdges"/><rect x="594" y="864" width="27" height="27" shape-rendering="crispEdges"/><rect x="621" y="108" width="27" height="27" shape-rendering="crispEdges"/><rect x="621" y="135" width="27" height="27" shape-rendering="crispEdges"/><rect x="621" y="189" width="27" height="27" shape-rendering="crispEdges"/><rect x="621" y="216" width="27" height="27" shape-rendering="crispEdges"/><rect x="621" y="243" width="27" height="27" shape-rendering="crispEdges"/><rect x="621" y="297" width="27" height="27" shape-rendering="crispEdges"/><rect x="621" y="351" width="27" height="27" shape-rendering="crispEdges"/><rect x="621" y="405" width="27" height="27" shape-rendering="crispEdges"/><rect x="621" y="459" width="27" height="27" shape-rendering="crispEdges"/><rect x="621" y="486" width="27" height="27" shape-rendering="crispEdges"/><rect x="621" y="594" width="27" height="27" shape-rendering="crispEdges"/><rect x="621" y="675" width="27" height="27" shape-rendering="crispEdges"/><rect x="621" y="702" width="27" height="27" shape-rendering="crispEdges"/><rect x="621" y="729" width="27" height="27" shape-rendering="crispEdges"/><rect x="621" y="756" width="27" height="27" shape-rendering="crispEdges"/><rect x="621" y="783" width="27" height="27" shape-rendering="crispEdges"/><rect x="621" y="810" width="27" height="27" shape-rendering="crispEdges"/><rect x="621" y="864" width="27" height="27" shape-rendering="crispEdges"/><rect x="648" y="108" width="27" height="27" shape-rendering="crispEdges"/><rect x="648" y="135" width="27" height="27" shape-rendering="crispEdges"/><rect x="648" y="189" width="27" height="27" shape-rendering="crispEdges"/><rect x="648" y="216" width="27" height="27" shape-rendering="crispEdges"/><rect x="648" y="270" width="27" height="27" shape-rendering="crispEdges"/><rect x="648" y="297" width="27" height="27" shape-rendering="crispEdges"/><rect x="648" y="324" width="27" height="27" shape-rendering="crispEdges"/><rect x="648" y="351" width="27" height="27" shape-rendering="crispEdges"/><rect x="648" y="405" width="27" height="27" shape-rendering="crispEdges"/><rect x="648" y="432" width="27" height="27" shape-rendering="crispEdges"/><rect x="648" y="459" width="27" height="27" shape-rendering="crispEdges"/><rect x="648" y="513" width="27" height="27" shape-rendering="crispEdges"/><rect x="648" y="567" width="27" height="27" shape-rendering="crispEdges"/><rect x="648" y="648" width="27" height="27" shape-rendering="crispEdges"/><rect x="648" y="675" width="27" height="27" shape-rendering="crispEdges"/><rect x="648" y="702" width="27" height="27" shape-rendering="crispEdges"/><rect x="648" y="729" width="27" height="27" shape-rendering="crispEdges"/><rect x="648" y="756" width="27" height="27" shape-rendering="crispEdges"/><rect x="648" y="810" width="27" height="27" shape-rendering="crispEdges"/><rect x="648" y="864" width="27" height="27" shape-rendering="crispEdges"/><rect x="675" y="324" width="27" height="27" shape-rendering="crispEdges"/><rect x="675" y="432" width="27" height="27" shape-rendering="crispEdges"/><rect x="675" y="459" width="27" height="27" shape-rendering="crispEdges"/><rect x="675" y="513" width="27" height="27" shape-rendering="crispEdges"/><rect x="675" y="540" width="27" height="27" shape-rendering="crispEdges"/><rect x="675" y="648" width="27" height="27" shape-rendering="crispEdges"/><rect x="675" y="756" width="27" height="27" shape-rendering="crispEdges"/><rect x="675" y="783" width="27" height="27" shape-rendering="crispEdges"/><rect x="675" y="810" width="27" height="27" shape-rendering="crispEdges"/><rect x="702" y="351" width="27" height="27" shape-rendering="crispEdges"/><rect x="702" y="405" width="27" height="27" shape-rendering="crispEdges"/><rect x="702" y="459" width="27" height="27" shape-rendering="crispEdges"/><rect x="702" y="486" width="27" height="27" shape-rendering="crispEdges"/><rect x="702" y="513" width="27" height="27" shape-rendering="crispEdges"/><rect x="702" y="540" width="27" height="27" shape-rendering="crispEdges"/><rect x="702" y="567" width="27" height="27" shape-rendering="crispEdges"/><rect x="702" y="594" width="27" height="27" shape-rendering="crispEdges"/><rect x="702" y="621" width="27" height="27" shape-rendering="crispEdges"/><rect x="702" y="648" width="27" height="27" shape-rendering="crispEdges"/><rect x="702" y="702" width="27" height="27" shape-rendering="crispEdges"/><rect x="702" y="756" width="27" height="27" shape-rendering="crispEdges"/><rect x="702" y="810" width="27" height="27" shape-rendering="crispEdges"/><rect x="729" y="324" width="27" height="27" shape-rendering="crispEdges"/><rect x="729" y="351" width="27" height="27" shape-rendering="crispEdges"/><rect x="729" y="378" width="27" height="27" shape-rendering="crispEdges"/><rect x="729" y="405" width="27" height="27" shape-rendering="crispEdges"/><rect x="729" y="459" width="27" height="27" shape-rendering="crispEdges"/><rect x="729" y="513" width="27" height="27" shape-rendering="crispEdges"/><rect x="729" y="567" width="27" height="27" shape-rendering="crispEdges"/><rect x="729" y="621" width="27" height="27" shape-rendering="crispEdges"/><rect x="729" y="648" width="27" height="27" shape-rendering="crispEdges"/><rect x="729" y="756" width="27" height="27" shape-rendering="crispEdges"/><rect x="729" y="783" width="27" height="27" shape-rendering="crispEdges"/><rect x="729" y="864" width="27" height="27" shape-rendering="crispEdges"/><rect x="756" y="324" width="27" height="27" shape-rendering="crispEdges"/><rect x="756" y="378" width="27" height="27" shape-rendering="crispEdges"/><rect x="756" y="432" width="27" height="27" shape-rendering="crispEdges"/><rect x="756" y="486" width="27" height="27" shape-rendering="crispEdges"/><rect x="756" y="540" width="27" height="27" shape-rendering="crispEdges"/><rect x="756" y="567" width="27" height="27" shape-rendering="crispEdges"/><rect x="756" y="594" width="27" height="27" shape-rendering="crispEdges"/><rect x="756" y="621" width="27" height="27" shape-rendering="crispEdges"/><rect x="756" y="648" width="27" height="27" shape-rendering="crispEdges"/><rect x="756" y="675" width="27" height="27" shape-rendering="crispEdges"/><rect x="756" y="702" width="27" height="27" shape-rendering="crispEdges"/><rect x="756" y="729" width="27" height="27" shape-rendering="crispEdges"/><rect x="756" y="756" width="27" height="27" shape-rendering="crispEdges"/><rect x="756" y="864" width="27" height="27" shape-rendering="crispEdges"/><rect x="783" y="324" width="27" height="27" shape-rendering="crispEdges"/><rect x="783" y="378" width="27" height="27" shape-rendering="crispEdges"/><rect x="783" y="405" width="27" height="27" shape-rendering="crispEdges"/><rect x="783" y="432" width="27" height="27" shape-rendering="crispEdges"/><rect x="783" y="486" width="27" height="27" shape-rendering="crispEdges"/><rect x="783" y="540" width="27" height="27" shape-rendering="crispEdges"/><rect x="783" y="567" width="27" height="27" shape-rendering="crispEdges"/><rect x="783" y="729" width="27" height="27" shape-rendering="crispEdges"/><rect x="783" y="783" width="27" height="27" shape-rendering="crispEdges"/><rect x="783" y="810" width="27" height="27" shape-rendering="crispEdges"/><rect x="783" y="837" width="27" height="27" shape-rendering="crispEdges"/><rect x="810" y="351" width="27" height="27" shape-rendering="crispEdges"/><rect x="810" y="405" width="27" height="27" shape-rendering="crispEdges"/><rect x="810" y="459" width="27" height="27" shape-rendering="crispEdges"/><rect x="810" y="486" width="27" height="27" shape-rendering="crispEdges"/><rect x="810" y="540" width="27" height="27" shape-rendering="crispEdges"/><rect x="810" y="594" width="27" height="27" shape-rendering="crispEdges"/><rect x="810" y="648" width="27" height="27" shape-rendering="crispEdges"/><rect x="810" y="675" width="27" height="27" shape-rendering="crispEdges"/><rect x="810" y="729" width="27" height="27" shape-rendering="crispEdges"/><rect x="810" y="756" width="27" height="27" shape-rendering="crispEdges"/><rect x="810" y="783" width="27" height="27" shape-rendering="crispEdges"/><rect x="810" y="837" width="27" height="27" shape-rendering="crispEdges"/><rect x="810" y="864" width="27" height="27" shape-rendering="crispEdges"/><rect x="837" y="324" width="27" height="27" shape-rendering="crispEdges"/><rect x="837" y="351" width="27" height="27" shape-rendering="crispEdges"/><rect x="837" y="432" width="27" height="27" shape-rendering="crispEdges"/><rect x="837" y="459" width="27" height="27" shape-rendering="crispEdges"/><rect x="837" y="486" width="27" height="27" shape-rendering="crispEdges"/><rect x="837" y="513" width="27" height="27" shape-rendering="crispEdges"/><rect x="837" y="621" width="27" height="27" shape-rendering="crispEdges"/><rect x="837" y="648" width="27" height="27" shape-rendering="crispEdges"/><rect x="837" y="702" width="27" height="27" shape-rendering="crispEdges"/><rect x="837" y="756" width="27" height="27" shape-rendering="crispEdges"/><rect x="837" y="783" width="27" height="27" shape-rendering="crispEdges"/><rect x="837" y="810" width="27" height="27" shape-rendering="crispEdges"/><rect x="837" y="864" width="27" height="27" shape-rendering="crispEdges"/><rect x="864" y="378" width="27" height="27" shape-rendering="crispEdges"/><rect x="864" y="405" width="27" height="27" shape-rendering="crispEdges"/><rect x="864" y="432" width="27" height="27" shape-rendering="crispEdges"/><rect x="864" y="459" width="27" height="27" shape-rendering="crispEdges"/><rect x="864" y="594" width="27" height="27" shape-rendering="crispEdges"/><rect x="864" y="648" width="27" height="27" shape-rendering="crispEdges"/><rect x="864" y="729" width="27" height="27" shape-rendering="crispEdges"/><rect x="864" y="756" width="27" height="27" shape-rendering="crispEdges"/><rect x="864" y="810" width="27" height="27" shape-rendering="crispEdges"/><rect x="108" y="108" width="27" height="27" shape-rendering="crispEdges"/><rect x="108" y="135" width="27" height="27" shape-rendering="crispEdges"/><rect x="108" y="162" width="27" height="27" shape-rendering="crispEdges"/><rect x="108" y="189" width="27" height="27" shape-rendering="crispEdges"/><rect x="108" y="216" width="27" height="27" shape-rendering="crispEdges"/><rect x="108" y="243" width="27" height="27" shape-rendering="crispEdges"/><rect x="108" y="270" width="27" height="27" shape-rendering="crispEdges"/><rect x="135" y="108" width="27" height="27" shape-rendering="crispEdges"/><rect x="135" y="270" width="27" height="27" shape-rendering="crispEdges"/><rect x="162" y="108" width="27" height="27" shape-rendering="crispEdges"/><rect x="162" y="270" width="27" height="27" shape-rendering="crispEdges"/><rect x="189" y="108" width="27" height="27" shape-rendering="crispEdges"/><rect x="189" y="270" width="27" height="27" shape-rendering="crispEdges"/><rect x="216" y="108" width="27" height="27" shape-rendering="crispEdges"/><rect x="216" y="270" width="27" height="27" shape-rendering="crispEdges"/><rect x="243" y="108" width="27" height="27" shape-rendering="crispEdges"/><rect x="243" y="270" width="27" height="27" shape-rendering="crispEdges"/><rect x="270" y="108" width="27" height="27" shape-rendering="crispEdges"/><rect x="270" y="135" width="27" height="27" shape-rendering="crispEdges"/><rect x="270" y="162" width="27" height="27" shape-rendering="crispEdges"/><rect x="270" y="189" width="27" height="27" shape-rendering="crispEdges"/><rect x="270" y="216" width="27" height="27" shape-rendering="crispEdges"/><rect x="270" y="243" width="27" height="27" shape-rendering="crispEdges"/><rect x="270" y="270" width="27" height="27" shape-rendering="crispEdges"/><rect x="162" y="162" width="27" height="27" shape-rendering="crispEdges"/><rect x="162" y="189" width="27" height="27" shape-rendering="crispEdges"/><rect x="162" y="216" width="27" height="27" shape-rendering="crispEdges"/><rect x="189" y="162" width="27" height="27" shape-rendering="crispEdges"/><rect x="189" y="189" width="27" height="27" shape-rendering="crispEdges"/><rect x="189" y="216" width="27" height="27" shape-rendering="crispEdges"/><rect x="216" y="162" width="27" height="27" shape-rendering="crispEdges"/><rect x="216" y="189" width="27" height="27" shape-rendering="crispEdges"/><rect x="216" y="216" width="27" height="27" shape-rendering="crispEdges"/><rect x="702" y="108" width="27" height="27" shape-rendering="crispEdges"/><rect x="702" y="135" width="27" height="27" shape-rendering="crispEdges"/><rect x="702" y="162" width="27" height="27" shape-rendering="crispEdges"/><rect x="702" y="189" width="27" height="27" shape-rendering="crispEdges"/><rect x="702" y="216" width="27" height="27" shape-rendering="crispEdges"/><rect x="702" y="243" width="27" height="27" shape-rendering="crispEdges"/><rect x="702" y="270" width="27" height="27" shape-rendering="crispEdges"/><rect x="729" y="108" width="27" height="27" shape-rendering="crispEdges"/><rect x="729" y="270" width="27" height="27" shape-rendering="crispEdges"/><rect x="756" y="108" width="27" height="27" shape-rendering="crispEdges"/><rect x="756" y="270" width="27" height="27" shape-rendering="crispEdges"/><rect x="783" y="108" width="27" height="27" shape-rendering="crispEdges"/><rect x="783" y="270" width="27" height="27" shape-rendering="crispEdges"/><rect x="810" y="108" width="27" height="27" shape-rendering="crispEdges"/><rect x="810" y="270" width="27" height="27" shape-rendering="crispEdges"/><rect x="837" y="108" width="27" height="27" shape-rendering="crispEdges"/><rect x="837" y="270" width="27" height="27" shape-rendering="crispEdges"/><rect x="864" y="108" width="27" height="27" shape-rendering="crispEdges"/><rect x="864" y="135" width="27" height="27" shape-rendering="crispEdges"/><rect x="864" y="162" width="27" height="27" shape-rendering="crispEdges"/><rect x="864" y="189" width="27" height="27" shape-rendering="crispEdges"/><rect x="864" y="216" width="27" height="27" shape-rendering="crispEdges"/><rect x="864" y="243" width="27" height="27" shape-rendering="crispEdges"/><rect x="864" y="270" width="27" height="27" shape-rendering="crispEdges"/><rect x="756" y="162" width="27" height="27" shape-rendering="crispEdges"/><rect x="756" y="189" width="27" height="27" shape-rendering="crispEdges"/><rect x="756" y="216" width="27" height="27" shape-rendering="crispEdges"/><rect x="783" y="162" width="27" height="27" shape-rendering="crispEdges"/><rect x="783" y="189" width="27" height="27" shape-rendering="crispEdges"/><rect x="783" y="216" width="27" height="27" shape-rendering="crispEdges"/><rect x="810" y="162" width="27" height="27" shape-rendering="crispEdges"/><rect x="810" y="189" width="27" height="27" shape-rendering="crispEdges"/><rect x="810" y="216" width="27" height="27" shape-rendering="crispEdges"/><rect x="108" y="702" width="27" height="27" shape-rendering="crispEdges"/><rect x="108" y="729" width="27" height="27" shape-rendering="crispEdges"/><rect x="108" y="756" width="27" height="27" shape-rendering="crispEdges"/><rect x="108" y="783" width="27" height="27" shape-rendering="crispEdges"/><rect x="108" y="810" width="27" height="27" shape-rendering="crispEdges"/><rect x="108" y="837" width="27" height="27" shape-rendering="crispEdges"/><rect x="108" y="864" width="27" height="27" shape-rendering="crispEdges"/><rect x="135" y="702" width="27" height="27" shape-rendering="crispEdges"/><rect x="135" y="864" width="27" height="27" shape-rendering="crispEdges"/><rect x="162" y="702" width="27" height="27" shape-rendering="crispEdges"/><rect x="162" y="864" width="27" height="27" shape-rendering="crispEdges"/><rect x="189" y="702" width="27" height="27" shape-rendering="crispEdges"/><rect x="189" y="864" width="27" height="27" shape-rendering="crispEdges"/><rect x="216" y="702" width="27" height="27" shape-rendering="crispEdges"/><rect x="216" y="864" width="27" height="27" shape-rendering="crispEdges"/><rect x="243" y="702" width="27" height="27" shape-rendering="crispEdges"/><rect x="243" y="864" width="27" height="27" shape-rendering="crispEdges"/><rect x="270" y="702" width="27" height="27" shape-rendering="crispEdges"/><rect x="270" y="729" width="27" height="27" shape-rendering="crispEdges"/><rect x="270" y="756" width="27" height="27" shape-rendering="crispEdges"/><rect x="270" y="783" width="27" height="27" shape-rendering="crispEdges"/><rect x="270" y="810" width="27" height="27" shape-rendering="crispEdges"/><rect x="270" y="837" width="27" height="27" shape-rendering="crispEdges"/><rect x="270" y="864" width="27" height="27" shape-rendering="crispEdges"/><rect x="162" y="756" width="27" height="27" shape-rendering="crispEdges"/><rect x="162" y="783" width="27" height="27" shape-rendering="crispEdges"/><rect x="162" y="810" width="27" height="27" shape-rendering="crispEdges"/><rect x="189" y="756" width="27" height="27" shape-rendering="crispEdges"/><rect x="189" y="783" width="27" height="27" shape-rendering="crispEdges"/><rect x="189" y="810" width="27" height="27" shape-rendering="crispEdges"/><rect x="216" y="756" width="27" height="27" shape-rendering="crispEdges"/><rect x="216" y="783" width="27" height="27" shape-rendering="crispEdges"/><rect x="216" y="810" width="27" height="27" shape-rendering="crispEdges"/></g></svg>